<svg id="Capa_1" data-name="Capa 1" xmlns="http://www.w3.org/2000/svg" xmlns:xlink="http://www.w3.org/1999/xlink" viewBox="0 0 650 194"><defs><style>.cls-1{fill:none;}.cls-2{clip-path:url(#clip-path);}.cls-3{fill:#303f9f;}.cls-3,.cls-4,.cls-5,.cls-6{fill-rule:evenodd;}.cls-4{fill:#d32f2f;}.cls-5{fill:#fbc02d;}.cls-6{fill:#fff;}</style><clipPath id="clip-path" transform="translate(0 0)"><rect class="cls-1" width="650" height="194"/></clipPath></defs><g class="cls-2"><path class="cls-3" d="M0,32.33A32.34,32.34,0,0,1,32.33,0H617.67A32.34,32.34,0,0,1,650,32.33V161.67A32.34,32.34,0,0,1,617.67,194H32.33A32.34,32.34,0,0,1,0,161.67Z" transform="translate(0 0)"/><path class="cls-4" d="M115,64h14V79H115Z" transform="translate(0 0)"/><path class="cls-5" d="M472,64h15V79H472Z" transform="translate(0 0)"/><path class="cls-6" d="M75.72,64q11.11,0,17.94,6.28T102,87L87.18,89Q85.37,76.79,75.72,76.8a10.37,10.37,0,0,0-9.58,5.76Q62.9,88.32,62.9,99q0,10.3,3.51,15.75a11.21,11.21,0,0,0,10,5.44,11.39,11.39,0,0,0,7.49-2.75q3.28-2.74,3.29-8.77H74.65V96.17H102V132H94.88a51.72,51.72,0,0,0-2.22-7.7A22.41,22.41,0,0,1,74.52,133q-13,0-20.28-9.37T47,99.41q0-16,7.73-25.7T75.72,64Z" transform="translate(0 0)"/><path class="cls-6" d="M252,65h14.51V88.65a12.92,12.92,0,0,1,12.18-7.26,15.58,15.58,0,0,1,13.39,6.89q4.92,6.9,4.92,18.91,0,11.58-5.06,18.7T277.34,133a16.61,16.61,0,0,1-8.08-1.72q-3.12-1.71-6.28-6.92-1.37,1.42-3.24,7.61H252Zm22.26,26.2a6.51,6.51,0,0,0-5.65,3q-2.1,3-2.1,8.64v9.46q0,5.2,2.17,7.85a6.5,6.5,0,0,0,5.19,2.65,7.08,7.08,0,0,0,5.94-3.21q2.34-3.21,2.34-12.49,0-10.55-2.42-13.24A7.18,7.18,0,0,0,274.26,91.2Z" transform="translate(0 0)"/><path class="cls-6" d="M417,65h13.82v40.15l2.17-2.7c.91-1.24,1.68-2.24,2.31-3l14.49-17h14.29L449.83,99.24,466,132H449.82l-10.37-22.46-8.63,9.89V132H417Z" transform="translate(0 0)"/><path class="cls-6" d="M599.92,74a20.77,20.77,0,0,1,4.08.39v9.2a19.21,19.21,0,0,0-3.84-.48q-4.81,0-5.64,4.28a13.21,13.21,0,0,1,3.94,9.35,13,13,0,0,1-5.81,11.11q-5.8,4.14-16.74,4.14a38.84,38.84,0,0,1-7.59-.74,4.3,4.3,0,0,0-2.47,3.75,3.27,3.27,0,0,0,2.09,3.37q2.09.82,10.06,1.21A130.65,130.65,0,0,1,593.6,121a12.82,12.82,0,0,1,7.19,4,11.18,11.18,0,0,1,2.92,7.89q0,6.76-6.25,11.44T575.32,149q-14.91,0-20.12-3.24t-5.2-8.22q0-6.58,8.41-8.87-6.23-3.12-6.22-8.77,0-7.07,9.82-11-8.7-3.6-8.71-12,0-6.87,6-11.15t16.6-4.28a40,40,0,0,1,13,2.14,13.7,13.7,0,0,1,2.46-6.89Q593.35,74,599.92,74ZM575.79,89.29a8.11,8.11,0,0,0-5.84,2,7,7,0,0,0-2.11,5.34q0,7.5,8,7.5a8.23,8.23,0,0,0,6.09-2.2,7.2,7.2,0,0,0,2.2-5.3A7.27,7.27,0,0,0,582,91.51C580.65,90,578.56,89.29,575.79,89.29Zm-9.65,42a3.77,3.77,0,0,0-2.21,1.17,3.6,3.6,0,0,0-1.34,2.83q0,3.3,4.23,4.13a51.46,51.46,0,0,0,9.91.83q7.44,0,10.43-1.12c2-.74,3-1.95,3-3.6,0-1.27-.84-2.24-2.51-2.92s-6.11-1-13.34-1l-2.91,0a30.1,30.1,0,0,1-3.6-.14A9.29,9.29,0,0,0,566.14,131.32Z" transform="translate(0 0)"/><path class="cls-6" d="M163.47,82a37.51,37.51,0,0,1,9.47,1.16,15.92,15.92,0,0,1,6.93,3.49,12.22,12.22,0,0,1,3.37,4.92q.88,2.59.88,9.05v22.2q0,6.41.88,9.16H170.89a34.33,34.33,0,0,1-.69-7.66q-3.7,5.24-7.38,7a19.49,19.49,0,0,1-8.36,1.72q-6.93,0-11.19-3.73a12.66,12.66,0,0,1-4.27-10,15.37,15.37,0,0,1,2.49-8.48,16.23,16.23,0,0,1,8-6.09q5.52-2.2,20.09-3.27V98.58q0-7.12-7.16-7.13-7.64,0-8.52,7.13l-13.42-1.26q1.31-8.34,7.95-11.83A31.82,31.82,0,0,1,163.47,82Zm6.1,26.52q-15.24,1.5-15.24,9.16a6.61,6.61,0,0,0,1.61,4.44,5.73,5.73,0,0,0,4.58,1.86,8.05,8.05,0,0,0,6.45-3.17,12,12,0,0,0,2.6-7.83Z" transform="translate(0 0)"/><path class="cls-6" d="M224.33,82q7,0,11.36,3.76T240,100.53V132H225.41V104.5a37.92,37.92,0,0,0-.4-6.84,5.46,5.46,0,0,0-1.91-3.12,5.68,5.68,0,0,0-3.82-1.29q-7.68,0-7.69,11.25V132H197V83h13.57v8.29q3.38-5.91,6.66-7.61A15.21,15.21,0,0,1,224.33,82Z" transform="translate(0 0)"/><path class="cls-6" d="M327.18,82q11.24,0,17.53,7.32T351,107.65q0,10.86-6.54,18.1T327.09,133q-10.5,0-16.8-7.18T304,107.4a28.49,28.49,0,0,1,2.84-13.26,23.66,23.66,0,0,1,7.8-8.79Q319.61,82,327.18,82Zm.39,9.45a6.94,6.94,0,0,0-6.21,3.18q-2.08,3.18-2.08,12.63,0,8.67,2,12.46a6.56,6.56,0,0,0,6.21,3.78,7,7,0,0,0,6-3.23q2.28-3.22,2.28-12.29,0-9.65-2-13.08A6.64,6.64,0,0,0,327.57,91.45Z" transform="translate(0 0)"/><path class="cls-6" d="M382.18,82q11.24,0,17.53,7.32T406,107.65q0,10.86-6.54,18.1T382.09,133q-10.5,0-16.8-7.18T359,107.4a28.49,28.49,0,0,1,2.84-13.26,23.66,23.66,0,0,1,7.8-8.79Q374.61,82,382.18,82Zm.39,9.45a6.94,6.94,0,0,0-6.21,3.18q-2.08,3.18-2.08,12.63,0,8.67,2,12.46a6.56,6.56,0,0,0,6.21,3.78,7,7,0,0,0,6-3.23q2.28-3.22,2.28-12.29,0-9.65-2-13.08A6.64,6.64,0,0,0,382.57,91.45Z" transform="translate(0 0)"/><path class="cls-6" d="M526.69,82q6.88,0,11.1,3.76T542,100.53V132H527.74V104.5a39.51,39.51,0,0,0-.38-6.84,5.52,5.52,0,0,0-5.59-4.41q-7.51,0-7.51,11.25V132H500V83h13.25v8.29q3.3-5.91,6.51-7.61A14.59,14.59,0,0,1,526.69,82Z" transform="translate(0 0)"/><path class="cls-6" d="M115,83h14v49H115Z" transform="translate(0 0)"/><path class="cls-6" d="M472,83h15v49H472Z" transform="translate(0 0)"/></g></svg>