<svg id="Capa_1" data-name="Capa 1" xmlns="http://www.w3.org/2000/svg" xmlns:xlink="http://www.w3.org/1999/xlink" viewBox="0 0 807 147"><defs><style>.cls-1{fill:none;}.cls-2{clip-path:url(#clip-path);}.cls-3{fill:#fff;fill-rule:evenodd;}</style><clipPath id="clip-path"><rect class="cls-1" width="807" height="147"/></clipPath></defs><g class="cls-2"><path class="cls-3" d="M546,0h22V68.45L592.3,40h27L591,72.45,620,112H592.3l-24-36.44H568V112H546Z"/><path class="cls-3" d="M56.26,5a78.83,78.83,0,0,1,23,3.07A46.51,46.51,0,0,1,97.79,18.45L81.6,36.19A29.94,29.94,0,0,0,71,28.79a38.61,38.61,0,0,0-14.72-2.51q-14.88.27-23.56,9.54T23.84,60Q24,74.91,32.7,84.18t23.56,9.54a48.44,48.44,0,0,0,13-1.7,38.79,38.79,0,0,0,8.67-3.48v-17H59.21V50.25H100V105a85.86,85.86,0,0,1-21.2,7.69A104.28,104.28,0,0,1,56.26,115q-16.41-.09-29.06-6.8a49.44,49.44,0,0,1-19.85-19Q.13,76.88,0,60,.14,43.13,7.35,30.82a49.44,49.44,0,0,1,19.85-19Q39.85,5.1,56.26,5Z"/><path class="cls-3" d="M120.5,5a12.5,12.5,0,1,1-8.84,3.66A12.49,12.49,0,0,1,120.5,5Z"/><path class="cls-3" d="M632.5,5a12.5,12.5,0,1,1-8.84,3.66A12.49,12.49,0,0,1,632.5,5Z"/><path class="cls-3" d="M294,7h38.94a75.91,75.91,0,0,1,18,1.84,28.34,28.34,0,0,1,14.33,7.78q5.63,5.79,5.83,17.06-.12,8.84-4.95,14.69a26.91,26.91,0,0,1-13,8.46v.29q10.43,1.5,16.57,8.38T376,82.79q-.21,10.9-6,17.33a32.37,32.37,0,0,1-14.75,9.18,60.5,60.5,0,0,1-18.44,2.7H294Zm23,19.56V49h16.68a18.2,18.2,0,0,0,9.89-2.54q4.33-2.62,4.58-8.89c-.2-4.29-1.87-7.21-5-8.77a22.11,22.11,0,0,0-10.46-2.21Zm0,42v23.9h20.67A19.19,19.19,0,0,0,348,89.73q4.68-2.81,5-9.61c-.09-3.27-1.14-5.75-3.15-7.42a16.06,16.06,0,0,0-7.28-3.37,39.26,39.26,0,0,0-8.17-.79Z"/><path class="cls-3" d="M172.2,38q12.81,0,20,4.33A22.86,22.86,0,0,1,202.24,55q2.87,8.34,2.76,20.43v36.81H184.62v-9.08h-.3a21.79,21.79,0,0,1-9.83,8.34A32.12,32.12,0,0,1,161.55,114a28.58,28.58,0,0,1-17.82-5.7q-7.39-5.67-7.73-16.65.17-9.29,5-14.54a27.5,27.5,0,0,1,12.38-7.59,69.31,69.31,0,0,1,15.85-2.89q8.29-.55,15.39-.46a12.3,12.3,0,0,0-4.21-9.46,15.19,15.19,0,0,0-10-3.53,22.25,22.25,0,0,0-10,2.32,26.62,26.62,0,0,0-8.07,6.34L140.58,49.61a40.73,40.73,0,0,1,14.47-8.71A51.52,51.52,0,0,1,172.2,38Zm7,42.46a64.39,64.39,0,0,0-8.7.52,23.83,23.83,0,0,0-9,2.84,8,8,0,0,0-4.16,7.09,6.92,6.92,0,0,0,3.42,6,13.41,13.41,0,0,0,7.08,1.93,20,20,0,0,0,11.7-3.43q4.92-3.42,5.16-10.14V80.46Z"/><path class="cls-3" d="M254.46,38q11.07.09,16.84,4.57a21.92,21.92,0,0,1,7.79,12.15A64.68,64.68,0,0,1,281,72.17V112h-22.1V76.63a55.88,55.88,0,0,0-.46-8.64,14,14,0,0,0-3-7.31q-2.46-3-8-3.08-8.38.27-11,5.7A27.26,27.26,0,0,0,234.1,76v36H212V39.78h21.22v9.8h.29a21.1,21.1,0,0,1,7.54-7.91Q246.36,38.19,254.46,38Z"/><path class="cls-3" d="M418,38a43.93,43.93,0,0,1,20.25,4.72,36,36,0,0,1,14.32,13.16Q457.88,64.38,458,76q-.12,11.61-5.43,20.12a36,36,0,0,1-14.32,13.16,45.8,45.8,0,0,1-40.5,0,36,36,0,0,1-14.32-13.16Q378.12,87.62,378,76q.12-11.61,5.43-20.12a36,36,0,0,1,14.32-13.16A43.93,43.93,0,0,1,418,38Zm0,19.66q-8.42.12-13.07,5.09T400.21,76q.07,8.3,4.72,13.25T418,94.34q8.42-.12,13.07-5.09T435.79,76q-.07-8.3-4.72-13.25T418,57.66Z"/><path class="cls-3" d="M500,38a43.93,43.93,0,0,1,20.25,4.72,36,36,0,0,1,14.32,13.16Q539.88,64.38,540,76q-.12,11.61-5.43,20.12a36,36,0,0,1-14.32,13.16,45.8,45.8,0,0,1-40.5,0,36,36,0,0,1-14.32-13.16Q460.12,87.62,460,76q.12-11.61,5.43-20.12a36,36,0,0,1,14.32-13.16A43.93,43.93,0,0,1,500,38Zm0,19.66q-8.42.12-13.07,5.09T482.21,76q.07,8.3,4.72,13.25T500,94.34q8.42-.12,13.07-5.09T517.79,76q-.07-8.3-4.72-13.25T500,57.66Z"/><path class="cls-3" d="M694.46,38q11.07.09,16.84,4.57a21.92,21.92,0,0,1,7.79,12.15A64.68,64.68,0,0,1,721,72.17V112h-22.1V76.63a55.88,55.88,0,0,0-.46-8.64,14,14,0,0,0-3-7.31q-2.46-3-8-3.08-8.39.27-11,5.7A27.26,27.26,0,0,0,674.1,76v36H652V39.78h21.22v9.8h.29a21.1,21.1,0,0,1,7.54-7.91Q686.36,38.19,694.46,38Z"/><path class="cls-3" d="M761.79,38q9.47.22,15.71,3.67t8.83,7.55h.3V39.77H807v65.72q0,20.34-10.34,30.89T765.49,147a75.56,75.56,0,0,1-18.92-2.14,45.08,45.08,0,0,1-17.13-8.33L741.7,118.2A41.61,41.61,0,0,0,752.53,125,32,32,0,0,0,765,127.51q10.07-.14,15-5t4.86-12.62V103h-.29a22,22,0,0,1-9.52,7.33,28.6,28.6,0,0,1-10.74,2.12q-16.17-.29-25.63-10.39T729,75.36a43.11,43.11,0,0,1,4-18.16,34.55,34.55,0,0,1,11.26-13.75A30,30,0,0,1,761.79,38Zm7.1,19.48a17.54,17.54,0,0,0-12.64,5.38,17.52,17.52,0,0,0,0,24.71,17.54,17.54,0,0,0,25.28,0,17.52,17.52,0,0,0,0-24.71A17.56,17.56,0,0,0,768.89,57.48Z"/><path class="cls-3" d="M109,40h22v72H109Z"/><path class="cls-3" d="M621,40h23v72H621Z"/></g></svg>